HIERARCHY
ROOT root
{
	OFFSET	0	13.1	24.9
	CHANNELS 6  Xposition Yposition Zposition Xrotation Yrotation Zrotation
	JOINT spine_1
	{
		OFFSET	0	9.99999	0
		CHANNELS 3  Xrotation Yrotation Zrotation
		JOINT spine_2
		{
			OFFSET	0	112	-10
			CHANNELS 3  Xrotation Yrotation Zrotation
			JOINT spine_3
			{
				OFFSET	0	206.5	19.3
				CHANNELS 3  Xrotation Yrotation Zrotation
				JOINT spine_4
				{
					OFFSET	0	110.4	14.6
					CHANNELS 3  Xrotation Yrotation Zrotation
					JOINT neck_1
					{
						OFFSET	0	71.8	-50.3
						CHANNELS 3  Xrotation Yrotation Zrotation
						JOINT neck_2
						{
							OFFSET	0	86.2	-25.8
							CHANNELS 3  Xrotation Yrotation Zrotation
							JOINT head_ee
							{
								OFFSET	0	179.8	-8.7
								CHANNELS 3  Xrotation Yrotation Zrotation
								End Site
								{
									OFFSET	1	0	0
								}
							}
						}
					}
					JOINT left_clavicle
					{
						OFFSET	-43.2	22.4	-70.8
						CHANNELS 3  Xrotation Yrotation Zrotation
						JOINT left_shoulder
						{
							OFFSET	-93.9	-5.79999	48.7
							CHANNELS 3  Xrotation Yrotation Zrotation
							JOINT left_elbow
							{
								OFFSET	-291.4	-30.8	15.2
								CHANNELS 3  Xrotation Yrotation Zrotation
								JOINT left_lowarm_twist
								{
									OFFSET	-110.7	-3.89999	13.6
									CHANNELS 3  Xrotation Yrotation Zrotation
									JOINT left_hand
									{
										OFFSET	-110.7	-3.89999	13.6
										CHANNELS 3  Xrotation Yrotation Zrotation
										JOINT left_ee
										{
											OFFSET	-80.8	-5.10001	12.1
											CHANNELS 3  Xrotation Yrotation Zrotation
											End Site
											{
												OFFSET	1	0	0
											}
										}
									}
								}
							}
						}
					}
					JOINT right_clavicle
					{
						OFFSET	43.2	22.4	-70.8
						CHANNELS 3  Xrotation Yrotation Zrotation
						JOINT right_shoulder
						{
							OFFSET	93.9	-5.79999	48.7
							CHANNELS 3  Xrotation Yrotation Zrotation
							JOINT right_elbow
							{
								OFFSET	291.4	-30.8	15.2
								CHANNELS 3  Xrotation Yrotation Zrotation
								JOINT right_lowarm_twist
								{
									OFFSET	110.7	-3.89999	13.6
									CHANNELS 3  Xrotation Yrotation Zrotation
									JOINT right_hand
									{
										OFFSET	110.7	-3.89999	13.6
										CHANNELS 3  Xrotation Yrotation Zrotation
										JOINT right_ee
										{
											OFFSET	80.8	-5.10001	12.1
											CHANNELS 3  Xrotation Yrotation Zrotation
											End Site
											{
												OFFSET	1	0	0
											}
										}
									}
								}
							}
						}
					}
				}
			}
		}
	}
	JOINT left_hip
	{
		OFFSET	-82.8	-127.5	0.300001
		CHANNELS 3  Xrotation Yrotation Zrotation
		JOINT left_knee
		{
			OFFSET	-28.2	-396.7	2.2
			CHANNELS 3  Xrotation Yrotation Zrotation
			JOINT left_ankle
			{
				OFFSET	-11.7	-411.3	35.4
				CHANNELS 3  Xrotation Yrotation Zrotation
				JOINT left_toes
				{
					OFFSET	0	-60	-88.6
					CHANNELS 3  Xrotation Yrotation Zrotation
					JOINT left_foot_ee
					{
						OFFSET	-22.5	-16.5	-42.2
						CHANNELS 3  Xrotation Yrotation Zrotation
						End Site
						{
							OFFSET	1	0	0
						}
					}
				}
			}
		}
	}
	JOINT right_hip
	{
		OFFSET	82.8	-127.5	0.300001
		CHANNELS 3  Xrotation Yrotation Zrotation
		JOINT right_knee
		{
			OFFSET	28.2	-396.7	2.2
			CHANNELS 3  Xrotation Yrotation Zrotation
			JOINT right_ankle
			{
				OFFSET	11.7	-411.3	35.4
				CHANNELS 3  Xrotation Yrotation Zrotation
				JOINT right_toes
				{
					OFFSET	0	-60	-88.6
					CHANNELS 3  Xrotation Yrotation Zrotation
					JOINT right_foot_ee
					{
						OFFSET	22.5	-16.5	-42.2
						CHANNELS 3  Xrotation Yrotation Zrotation
						End Site
						{
							OFFSET	1	0	0
						}
					}
				}
			}
		}
	}
}
MOTION
Frames: 6
Frame Time: 0.02
2819.79173635 701.642 -1766.06930195 -7.98922005299 26.8618929892 -4.2111787566 4.53939 -0.0423062 1.36459 4.54042 -0.129045 1.35914 4.53661 -0.307642 1.33014 4.53416 -0.0937302 1.36203 -19.534 17.2872 6.33992 -20.788 30.078 13.4151 -0.0 0.0 -0.0 3.68278 13.8354 7.65347 -20.4831 -27.349 51.3248 0.790476 -21.3842 0.149251 6.45393 0.182275 -0.80382 -1.41234 -4.33872 -11.4238 -0.0 0.0 -0.0 9.69826 9.69463 -19.1793 -36.9332 19.472 -55.1936 0.450884 12.5908 -0.0497418 11.0036 -0.255846 1.38017 0.946144 -8.78603 -9.80012 0.0 0.0 0.0 29.1038 -32.3769 27.1934 -33.4955 -0.105613 5.06686 17.5529 26.8237 -2.56974 0.844517 -0.0 -0.0 -0.0 0.0 -0.0 20.7246 -23.0935 15.7391 5.78527 0.281088 0.842657 35.9464 -25.6433 4.78076 -1.25961 0.0 0.0 0.0 0.0 0.0 
2799.98066824 699.801 -1767.73975445 -8.42742359157 27.7305367139 -4.36247002673 4.43515 -0.0819316 1.3953 4.43622 -0.170544 1.38726 4.43134 -0.354993 1.35188 4.42882 -0.137056 1.39097 -20.4515 16.9942 5.89133 -21.8069 29.848 13.1726 -0.0 0.0 -0.0 3.84194 14.7143 7.93251 -19.6019 -26.9737 49.6577 0.931271 -24.7647 0.204456 6.41157 0.181375 -0.798484 -1.50095 -4.75957 -12.2214 -0.0 0.0 -0.0 9.16318 9.63862 -18.02 -37.4033 19.4828 -55.5478 0.550582 15.2561 -0.0737381 11.1485 -0.257435 1.39861 1.01546 -8.71047 -10.2263 0.0 0.0 0.0 29.3814 -32.5225 28.5358 -32.6689 -0.067378 4.9458 17.7967 27.5879 -2.61555 0.926095 -0.0 -0.0 -0.0 0.0 -0.0 22.8378 -22.6623 15.7875 4.97518 0.236612 0.726396 35.3052 -24.5638 4.68189 -1.56078 0.0 0.0 0.0 0.0 0.0 
2787.73123737 700.561 -1764.0926094 -9.95446447744 30.5324859278 -3.37510976074 4.59246 -0.117318 1.47586 4.59365 -0.210983 1.46541 4.58738 -0.401683 1.42499 4.58459 -0.171617 1.47053 -21.4697 16.558 5.77002 -22.8695 29.175 13.1638 -0.0 0.0 -0.0 3.99279 14.6749 8.17742 -16.9251 -27.3409 49.0497 1.04092 -27.2768 0.25257 6.61534 0.185667 -0.82416 -1.69387 -5.10514 -13.7103 -0.0 0.0 -0.0 9.08651 8.35041 -17.8745 -38.3809 18.8338 -55.3126 0.503819 14.0136 -0.0619225 11.9453 -0.265343 1.50008 0.933787 -9.88029 -10.1335 0.0 0.0 0.0 28.5268 -32.6229 27.6265 -29.2194 0.0731715 4.43519 17.6747 27.9169 -2.60437 0.970384 -0.0 -0.0 -0.0 0.0 -0.0 25.9884 -21.775 16.3323 1.89684 0.0827456 0.279293 36.231 -24.788 4.78496 -1.66821 0.0 0.0 0.0 0.0 0.0 
2777.86421073 700.831 -1774.3895957 -10.5320173344 29.7013281279 -4.00216247561 4.75113 0.0213963 1.58256 4.75252 -0.0793365 1.58071 4.74924 -0.281894 1.5574 4.74586 -0.0324255 1.58237 -21.1453 16.3698 4.39843 -22.5888 29.4325 11.7441 -0.0 0.0 -0.0 4.83236 14.9853 9.54702 -16.2018 -27.1285 46.9446 1.17867 -30.2787 0.31891 6.64411 0.186265 -0.827787 -1.89197 -5.19889 -15.1314 -0.0 0.0 -0.0 8.86013 7.41467 -17.4005 -37.6303 17.1326 -55.6477 0.443828 12.3999 -0.048215 13.1033 -0.274318 1.64772 0.918488 -10.0499 -10.0977 0.0 0.0 0.0 27.8739 -36.0546 28.6061 -23.0897 0.246168 3.51082 16.9907 26.8184 -2.49266 1.07537 -0.0 -0.0 -0.0 0.0 -0.0 31.0936 -21.675 17.1518 -1.31375 -0.0518605 -0.194938 36.0681 -25.1813 4.7796 -1.84118 0.0 0.0 0.0 0.0 0.0 
2781.19930182 700.831 -1786.32522555 -10.3601358568 28.0095075784 -4.35827924463 4.75113 0.0213963 1.58256 4.75252 -0.0793365 1.58071 4.74924 -0.281894 1.5574 4.74586 -0.0324255 1.58237 -21.1453 16.3698 4.39843 -22.5888 29.4325 11.7441 -0.0 0.0 -0.0 4.83236 14.9853 9.54702 -16.2018 -27.1285 46.9446 1.17867 -30.2787 0.31891 6.64411 0.186265 -0.827787 -1.89197 -5.19889 -15.1314 -0.0 0.0 -0.0 8.86013 7.41467 -17.4005 -37.6303 17.1326 -55.6477 0.443828 12.3999 -0.048215 13.1033 -0.274318 1.64772 0.918488 -10.0499 -10.0977 0.0 0.0 0.0 27.8739 -36.0546 28.6061 -23.0897 0.246168 3.51082 16.9907 26.8184 -2.49266 1.07537 -0.0 -0.0 -0.0 0.0 -0.0 31.0936 -21.675 17.1518 -1.31375 -0.0518605 -0.194938 36.0681 -25.1813 4.7796 -1.84118 0.0 0.0 0.0 0.0 0.0 
2772.6470512 701.898 -1786.22921519 -11.6976231316 29.5928694701 -3.39173045887 4.71786 -0.152192 1.6132 4.71927 -0.254522 1.60025 4.71108 -0.459238 1.55394 4.70777 -0.208092 1.60695 -19.5251 16.6531 3.79577 -20.8778 30.1383 10.8357 -0.0 0.0 -0.0 5.48157 13.0012 10.6502 -15.7672 -25.5378 45.8401 1.35643 -33.8968 0.413385 6.66952 0.186793 -0.83099 -1.95055 -5.42956 -15.6456 -0.0 0.0 -0.0 8.62512 6.86808 -16.9065 -38.5612 15.4456 -55.49 0.592721 16.3633 -0.0852193 15.403 -0.283287 1.94129 1.06708 -7.7745 -10.2106 0.0 0.0 0.0 24.6393 -34.6649 26.6908 -16.3479 0.321245 2.47969 15.9111 27.5416 -2.35423 0.590479 -0.0 -0.0 -0.0 0.0 -0.0 35.9841 -18.0071 18.0829 -6.29531 -0.207535 -0.943371 34.7645 -24.3508 4.61888 -1.82218 0.0 0.0 0.0 0.0 0.0 
